<svg xmlns="http://www.w3.org/2000/svg" viewBox="0 0 512 512" role="img" aria-label="ks.">
<title>ks.</title>
<rect width="512" height="512" fill="#0a0a0a"></rect>
<g transform="translate(64.61999999999995 332)" fill="#f0ede8"><path d="M22.40 0L22.40-198.80L45.92-198.80L45.92-68.60L118.16-148.40L149.52-148.40L91.00-85.40L152.04 0L123.48 0L75.04-69.44L45.92-38.64L45.92 0L22.40 0Z M248.08 3.36Q218.96 3.36 202.30-10.36Q185.64-24.08 183.96-46.76L183.96-46.76L208.60-48.44Q213.08-19.04 248.08-19.04L248.08-19.04Q263.76-19.04 272.58-24.08Q281.40-29.12 281.40-39.76L281.40-39.76Q281.40-45.92 278.46-49.70Q275.52-53.48 267.54-56.42Q259.56-59.36 243.60-62.16L243.60-62.16Q212.52-67.76 200.06-77.98Q187.60-88.20 187.60-106.40L187.60-106.40Q187.60-126.56 202.44-139.16Q217.28-151.76 243.60-151.76L243.60-151.76Q269.36-151.76 284.48-138.32Q299.60-124.88 303.24-104.16L303.24-104.16L278.60-102.48Q276.08-114.80 266.98-122.08Q257.88-129.36 243.32-129.36L243.32-129.36Q227.92-129.36 220.08-123.34Q212.24-117.32 212.24-107.52L212.24-107.52Q212.24-96.88 220.08-91.56Q227.92-86.24 248.08-82.88L248.08-82.88Q270.76-78.96 283.22-73.50Q295.68-68.04 300.86-60.06Q306.04-52.08 306.04-39.76L306.04-39.76Q306.04-19.60 289.66-8.12Q273.28 3.36 248.08 3.36L248.08 3.36Z"></path></g>
<g transform="translate(389.42 332)" fill="#2CF2D4"><path d="M13.16 0L13.16-31.64L44.80-31.64L44.80 0L13.16 0Z"></path></g>
</svg>