<svg xmlns="http://www.w3.org/2000/svg" viewBox="0 0 1600 480" role="img" aria-label="ks. KS Media Solutions">
<title>ks. — KS Media Solutions</title>
<rect width="1600" height="480" fill="#0a0a0a"></rect>
<path d="M 632 140 L 592 140 L 592 340 L 632 340" fill="none" stroke="#f0ede8" stroke-width="5" stroke-linecap="square"></path>
<path d="M 968 140 L 1008 140 L 1008 340 L 968 340" fill="none" stroke="#f0ede8" stroke-width="5" stroke-linecap="square"></path>
<g transform="translate(663.3 312)" fill="#f0ede8"><path d="M16 0L16-142L32.80-142L32.80-49L84.40-106L106.80-106L65-61L108.60 0L88.20 0L53.60-49.60L32.80-27.60L32.80 0L16 0Z M177.20 2.40Q156.40 2.40 144.50-7.40Q132.60-17.20 131.40-33.40L131.40-33.40L149-34.60Q152.20-13.60 177.20-13.60L177.20-13.60Q188.40-13.60 194.70-17.20Q201-20.80 201-28.40L201-28.40Q201-32.80 198.90-35.50Q196.80-38.20 191.10-40.30Q185.40-42.40 174-44.40L174-44.40Q151.80-48.40 142.90-55.70Q134-63 134-76L134-76Q134-90.40 144.60-99.40Q155.20-108.40 174-108.40L174-108.40Q192.40-108.40 203.20-98.80Q214-89.20 216.60-74.40L216.60-74.40L199-73.20Q197.20-82 190.70-87.20Q184.20-92.40 173.80-92.40L173.80-92.40Q162.80-92.40 157.20-88.10Q151.60-83.80 151.60-76.80L151.60-76.80Q151.60-69.20 157.20-65.40Q162.80-61.60 177.20-59.20L177.20-59.20Q193.40-56.40 202.30-52.50Q211.20-48.60 214.90-42.90Q218.60-37.20 218.60-28.40L218.60-28.40Q218.60-14 206.90-5.80Q195.20 2.40 177.20 2.40L177.20 2.40Z"></path></g>
<g transform="translate(895.3 312)" fill="#2CF2D4"><path d="M9.40 0L9.40-22.60L32-22.60L32 0L9.40 0Z"></path></g>
</svg>
